<?xml version="1.0" encoding="UTF-8"?>
<svg version="1.1" xmlns="http://www.w3.org/2000/svg" width="512" height="512">
<path d="M0 0 C0.78811569 -0.00423477 1.57623138 -0.00846954 2.38822937 -0.01283264 C4.95288388 -0.02274109 7.51736091 -0.02274624 10.08203125 -0.01953125 C11.39799286 -0.01862488 11.39799286 -0.01862488 12.74053955 -0.0177002 C57.67787112 0.06634654 110.21994716 3.61473451 143.89453125 37.16796875 C144.51714844 37.76738281 145.13976562 38.36679688 145.78125 38.984375 C154.08575932 47.62479706 159.62600786 59.4928958 161.89453125 71.16796875 C162.12140625 72.26109375 162.34828125 73.35421875 162.58203125 74.48046875 C163.2100654 81.89127168 163.58855223 89.45693421 161.89453125 96.73046875 C161.06860541 102.39396024 164.90455289 107.12972542 167.9140625 111.640625 C168.89439453 112.89166016 168.89439453 112.89166016 169.89453125 114.16796875 C173.36736581 114.16796875 175.74975887 111.18277498 178.33203125 109.04296875 C192.65471239 97.38586852 207.74115002 86.71130724 222.89453125 76.16796875 C224.15885986 75.2855249 224.15885986 75.2855249 225.44873047 74.38525391 C228.07248258 72.55695757 230.70133639 70.73625775 233.33203125 68.91796875 C234.15574219 68.34425537 234.97945313 67.77054199 235.828125 67.17944336 C236.9728125 66.39259155 236.9728125 66.39259155 238.140625 65.58984375 C239.15660767 64.88746582 239.15660767 64.88746582 240.19311523 64.17089844 C241.89453125 63.16796875 241.89453125 63.16796875 243.89453125 63.16796875 C243.65669922 61.87439453 243.65669922 61.87439453 243.4140625 60.5546875 C241.63529636 48.95927217 242.80161345 38.65884355 249.64453125 28.91796875 C250.69733895 27.64215252 251.78106975 26.39120814 252.89453125 25.16796875 C253.68730469 24.29398438 253.68730469 24.29398438 254.49609375 23.40234375 C274.98312323 3.36657043 310.74697978 1.02932848 337.74926758 0.87280273 C339.1504108 0.8611416 340.55150502 0.84047454 341.95239258 0.8112793 C344.00501825 0.76872921 346.0563642 0.75247279 348.109375 0.7421875 C349.317146 0.72760498 350.52491699 0.71302246 351.76928711 0.69799805 C355.4922001 1.25784552 356.64430398 2.21000045 358.89453125 5.16796875 C362.40308317 20.15670895 352.40238269 39.81218196 344.90234375 52.21484375 C335.34685217 66.26922437 322.09892041 75.8173928 305.52954102 79.72583008 C292.55239231 81.903317 277.74425389 81.30223107 265.14746094 77.50317383 C260.96375332 76.24992633 258.10348092 75.90694309 253.89453125 77.16796875 C251.49990373 78.53264895 249.32328028 79.90159853 247.08203125 81.48046875 C246.43459961 81.92487305 245.78716797 82.36927734 245.12011719 82.82714844 C243.03684885 84.26282021 240.96529655 85.7143349 238.89453125 87.16796875 C237.53138973 88.11478454 236.16810868 89.06139947 234.8046875 90.0078125 C219.15550803 100.92343851 203.77128077 112.21880542 188.89453125 124.16796875 C187.94199463 124.93125488 187.94199463 124.93125488 186.97021484 125.70996094 C174.16583397 135.98720247 161.65074763 146.53287284 149.59765625 157.68359375 C146.58372948 160.45361893 143.51700079 163.1540657 140.41796875 165.828125 C139.2028029 166.89684779 138.03882065 168.02367935 136.89453125 169.16796875 C141.43972451 168.61024332 145.97965495 168.01732188 150.51953125 167.41796875 C151.80472656 167.26070312 153.08992188 167.1034375 154.4140625 166.94140625 C155.65800781 166.77382812 156.90195312 166.60625 158.18359375 166.43359375 C159.32521973 166.28696289 160.4668457 166.14033203 161.64306641 165.98925781 C167.60165504 164.48417505 171.78425213 160.50372957 176.33203125 156.54296875 C206.31141888 131.13646735 243.59048791 117.67558312 282.89453125 120.16796875 C313.92157721 122.87263909 345.17746354 140.10163945 365.79296875 163.3046875 C367.60973851 166.37773422 367.69854571 169.76831706 366.89453125 173.16796875 C349.66519193 198.58830545 307.31795206 212.45424853 278.98828125 217.921875 C242.14170129 223.64911515 205.12989718 213.69366859 173.97265625 193.94140625 C172.95377319 193.29788208 172.95377319 193.29788208 171.91430664 192.64135742 C169.89453125 191.16796875 169.89453125 191.16796875 168.02905273 189.1887207 C165.31576382 186.46017928 162.98958567 184.30697965 158.99407959 184.04187012 C153.39418273 184.30560355 147.93566359 185.48341659 142.45703125 186.60546875 C140.80083125 186.91330117 139.14392711 187.21737016 137.48632812 187.51757812 C134.31939476 188.09674423 131.16310515 188.71159197 128.00952148 189.359375 C125.59958463 189.85058449 123.25757362 190.24789752 120.81274414 190.5546875 C113.59027798 191.4894005 110.03321438 195.03292115 105.20703125 200.29296875 C104.49998047 201.02773437 103.79292969 201.7625 103.06445312 202.51953125 C98.52570718 207.27161917 94.18777175 212.19446354 89.89453125 217.16796875 C89.40718506 217.72774414 88.91983887 218.28751953 88.41772461 218.86425781 C50.52045879 262.41166145 20.55747721 310.58205262 -5.10546875 362.16796875 C-4.04328125 361.636875 -2.98109375 361.10578125 -1.88671875 360.55859375 C0.94661458 359.14192708 3.77994792 357.72526042 6.61328125 356.30859375 C7.31936523 355.95104004 8.02544922 355.59348633 8.75292969 355.22509766 C10.16910744 354.52604959 11.59984647 353.85568811 13.04394531 353.21630859 C17.89676897 351.01264933 20.51273494 348.74633868 23.64453125 344.29296875 C24.50203714 343.11877128 25.36283777 341.94697431 26.2265625 340.77734375 C26.66564941 340.17728516 27.10473633 339.57722656 27.55712891 338.95898438 C40.46857078 321.66830574 56.38783445 305.75753037 73.89453125 293.16796875 C74.94640625 292.39453125 75.99828125 291.62109375 77.08203125 290.82421875 C116.68936736 262.47779193 166.04808838 248.81871077 214.58203125 256.29296875 C217.70728321 256.83387134 220.79874908 257.4793985 223.89453125 258.16796875 C225.28575195 258.46598389 225.28575195 258.46598389 226.70507812 258.77001953 C254.58582784 264.85582739 280.63623436 276.03112264 305.14453125 290.60546875 C305.95994385 291.08918945 306.77535645 291.57291016 307.61547852 292.07128906 C318.01651028 298.4409389 318.01651028 298.4409389 319.55859375 303.23046875 C319.48288933 306.98540802 319.27228595 308.68397054 316.89453125 311.73046875 C315.40953125 312.93703125 315.40953125 312.93703125 313.89453125 314.16796875 C312.67849008 315.2445792 311.46517462 316.32427258 310.25390625 317.40625 C255.13239743 365.71294147 175.4442046 402.57412139 101.13671875 397.890625 C74.08391474 395.84266507 46.53377139 387.68801831 24.10546875 372.1015625 C20.86173126 370.73185709 19.29520325 371.18449915 15.89453125 372.16796875 C12.41162285 373.71871723 9.06222192 375.48474649 5.70703125 377.29296875 C4.77318604 377.7936084 3.83934082 378.29424805 2.87719727 378.81005859 C0.20974287 380.25100905 -2.44817189 381.70840087 -5.10546875 383.16796875 C-5.75999023 383.51730469 -6.41451172 383.86664063 -7.08886719 384.2265625 C-8.63069503 385.05384146 -10.15078898 385.92130991 -11.66796875 386.79296875 C-12.45300781 387.23898437 -13.23804687 387.685 -14.046875 388.14453125 C-19.43084964 393.43655945 -21.26487852 402.1924082 -23.48046875 409.23046875 C-23.77864502 410.1642334 -24.07682129 411.09799805 -24.3840332 412.06005859 C-26.99118001 420.40762966 -29.0977077 428.85876009 -30.97607422 437.39868164 C-33.0977868 446.55656017 -33.0977868 446.55656017 -37.10546875 449.16796875 C-40.89960984 450.17578748 -44.16419418 449.6621379 -47.60546875 447.85546875 C-51.60557864 440.68860519 -48.71713439 430.86179789 -46.73046875 423.35546875 C-46.46645264 422.33630371 -46.20243652 421.31713867 -45.93041992 420.26708984 C-32.84893065 371.2602617 -9.70129726 304.76379726 26.89453125 268.16796875 C26.46918796 262.10513899 24.97193845 256.95304811 22.83203125 251.29296875 C19.89453125 243.38793443 19.89453125 243.38793443 19.89453125 241.16796875 C19.15332031 241.1421875 18.41210938 241.11640625 17.6484375 241.08984375 C-15.67134689 239.2953878 -44.55473745 222.57068185 -66.85742188 198.22753906 C-94.54299297 166.75607291 -112.552426 117.75429527 -113.41796875 75.98046875 C-113.45535156 74.79066406 -113.49273437 73.60085937 -113.53125 72.375 C-113.01163933 68.4612352 -112.17434639 67.56586049 -109.10546875 65.16796875 C-99.78223128 63.54956341 -89.62534794 65.82233033 -80.35546875 67.29296875 C-79.63792419 67.40467407 -78.92037964 67.51637939 -78.18109131 67.63146973 C-41.23859834 73.41920522 -3.60014007 83.2106112 25.89453125 107.16796875 C26.46429688 107.59078125 27.0340625 108.01359375 27.62109375 108.44921875 C41.88971599 119.53952229 50.56098798 136.72687037 53.89453125 154.16796875 C54.23484375 155.83859375 54.23484375 155.83859375 54.58203125 157.54296875 C56.67489456 181.82018317 50.52540376 207.39007809 37.11328125 227.890625 C35.66837259 230.59056649 35.72203847 231.57227841 36.51953125 234.48046875 C36.72578125 235.24875 36.93203125 236.01703125 37.14453125 236.80859375 C38.26202895 240.32405527 39.52435057 243.74251706 40.89453125 247.16796875 C44.12980441 244.09482773 46.78085751 240.79723079 49.45703125 237.23046875 C53.43750015 231.97938345 57.57810541 226.90387991 61.86425781 221.90014648 C64.70876047 218.57839505 67.47711413 215.21042055 70.20703125 211.79296875 C74.95732105 205.95105042 80.0971021 200.50429892 85.26953125 195.0390625 C87.89714623 192.25903787 90.44824617 189.42219056 92.984375 186.55859375 C98.3409717 180.58733354 103.98900412 174.92283388 109.66967773 169.26245117 C111.46129075 167.47622205 113.2474618 165.68467528 115.03320312 163.89257812 C120.29345356 158.6292711 125.55111852 153.42650668 131.21948242 148.59790039 C133.80995107 146.3865063 136.27813643 144.05277999 138.76953125 141.73046875 C143.94110108 136.94336212 149.31478699 132.47622261 154.89453125 128.16796875 C154.42682266 123.17907714 152.47490228 118.68010285 148.89453125 115.16796875 C145.57670673 114.09264154 142.41752729 114.2408948 138.95703125 114.35546875 C136.96997322 114.34010873 134.98296488 114.31643924 132.99609375 114.28515625 C131.47483887 114.2692041 131.47483887 114.2692041 129.92285156 114.25292969 C108.35242692 113.64776137 87.17620933 107.65363333 67.89453125 98.16796875 C67.26353516 97.86133301 66.63253906 97.55469727 65.98242188 97.23876953 C56.25589999 92.45730656 47.50787091 86.7264308 38.89453125 80.16796875 C38.01925781 79.51828125 37.14398438 78.86859375 36.2421875 78.19921875 C17.86866537 63.93072083 -13.32204333 35.69254797 -17.44140625 11.16796875 C-17.51110626 7.59932846 -17.49879006 5.73609953 -15.41796875 2.73046875 C-10.76766116 -0.41163097 -5.44018738 0.00886473 0 0 Z " fill="#080633" transform="translate(129.10546875,30.83203125)"/>
<path d="M0 0 C1.65902344 0.3403125 1.65902344 0.3403125 3.3515625 0.6875 C6.27965144 1.34735103 9.12468835 2.1374065 12 3 C12.70672852 3.20931152 13.41345703 3.41862305 14.14160156 3.63427734 C34.88599106 9.8744939 54.40499203 18.92503202 73 30 C73 30.66 73 31.32 73 32 C71.49389648 33.35351562 71.49389648 33.35351562 69.37109375 34.90625 C68.59072754 35.48036621 67.81036133 36.05448242 67.00634766 36.64599609 C66.15862793 37.25781738 65.3109082 37.86963867 64.4375 38.5 C63.57431152 39.1285791 62.71112305 39.7571582 61.82177734 40.40478516 C6.04140632 80.7861093 -63.34034491 115.24648252 -134.18359375 105.12890625 C-152.22341058 101.98657438 -168.91579159 95.63247074 -185 87 C-185 86.34 -185 85.68 -185 85 C-135.81478136 65.79268255 -84.76528288 54.24932873 -31.83276367 53.37817383 C-30.7316626 53.3552124 -29.63056152 53.33225098 -28.49609375 53.30859375 C-27.52857178 53.29626709 -26.5610498 53.28394043 -25.56420898 53.27124023 C-22.89009892 52.98837474 -21.25222504 52.44870433 -19 51 C-17.61449803 48.22899606 -17.8122533 46.0665294 -18 43 C-19.72226496 39.75150023 -19.72226496 39.75150023 -23 39 C-46.97966509 37.56199348 -71.38727004 39.83865877 -95 44 C-96.68923584 44.29366455 -96.68923584 44.29366455 -98.41259766 44.59326172 C-121.86625551 48.73068625 -145.05060466 54.03863442 -167.4453125 62.28515625 C-170 63 -170 63 -173 62 C-144.35660324 29.69160169 -107.57881929 6.73384794 -65 -2 C-63.94167969 -2.22816406 -62.88335937 -2.45632813 -61.79296875 -2.69140625 C-41.33822062 -6.37068799 -20.13594171 -4.44593321 0 0 Z " fill="#429E46" transform="translate(353,306)"/>
<path d="M0 0 C21.46040575 2.00257268 42.5680994 6.11046794 63 13 C63.78922852 13.26006836 64.57845703 13.52013672 65.39160156 13.78808594 C90.28068028 22.07092802 116.17721498 34.768608 128.5 59.1875 C132.63595556 67.45941113 134.36331594 74.93903095 134.25 84.1875 C134.24033203 85.02555176 134.23066406 85.86360352 134.22070312 86.72705078 C133.92484293 102.13249102 129.90387799 116.19224401 123 130 C122.34 130 121.68 130 121 130 C120.48953125 128.99324219 119.9790625 127.98648438 119.453125 126.94921875 C107.33639693 103.3717186 92.54525028 81.9849249 74 63 C73.38995117 62.37480469 72.77990234 61.74960938 72.15136719 61.10546875 C70.23249632 59.14700367 68.30631744 57.19618898 66.375 55.25 C65.77042969 54.6405957 65.16585937 54.03119141 64.54296875 53.40332031 C60.50523261 49.21590577 60.50523261 49.21590577 55.125 47.6875 C51.95475233 47.75215083 51.95475233 47.75215083 49.625 49.625 C47.50029121 52.73034361 47.39613708 54.3013396 48 58 C50.00153451 61.25249358 52.5546037 63.49953273 55.4375 65.9375 C67.2466843 76.10651982 76.90331243 88.42112672 86 101 C86.4444043 101.61423828 86.88880859 102.22847656 87.34667969 102.86132812 C93.03199876 110.8233968 97.90615127 119.18410516 102.625 127.75 C103.15875244 128.71574951 103.69250488 129.68149902 104.24243164 130.67651367 C104.73219482 131.58248291 105.22195801 132.48845215 105.7265625 133.421875 C106.16564941 134.23237305 106.60473633 135.04287109 107.05712891 135.87792969 C108 138 108 138 108 141 C94.10053139 141.57243629 80.8837944 134.57887903 69 128 C68.01257813 127.45601563 67.02515625 126.91203125 66.0078125 126.3515625 C58.06417259 121.63142864 51.52928953 115.47111218 45 109 C44.28070313 108.29359375 43.56140625 107.5871875 42.8203125 106.859375 C18.71416484 81.45289573 -0.75147109 35.3151863 0 0 Z " fill="#429F46" transform="translate(33,113)"/>
<path d="M0 0 C2.23044611 1.10164118 4.45935646 2.20621894 6.6875 3.3125 C7.31333984 3.62123047 7.93917969 3.92996094 8.58398438 4.24804688 C15.91600275 7.8948623 15.91600275 7.8948623 19 10 C19 10.66 19 11.32 19 12 C17.49389648 13.35351563 17.49389648 13.35351563 15.37109375 14.90625 C14.20054443 15.76742432 14.20054443 15.76742432 13.00634766 16.64599609 C11.73476807 17.56372803 11.73476807 17.56372803 10.4375 18.5 C9.57431152 19.1285791 8.71112305 19.7571582 7.82177734 20.40478516 C-47.95859368 60.7861093 -117.34034491 95.24648252 -188.18359375 85.12890625 C-206.22341058 81.98657438 -222.91579159 75.63247074 -239 67 C-239 66.34 -239 65.68 -239 65 C-232.01864226 62.34675446 -225.02559594 59.7271967 -218.02197266 57.13330078 C-215.47472384 56.17803103 -212.94477115 55.19119306 -210.41796875 54.18359375 C-209.15407549 53.70459393 -207.88979241 53.22662057 -206.625 52.75 C-205.56539062 52.33234375 -204.50578125 51.9146875 -203.4140625 51.484375 C-199.22643811 50.8902498 -196.59867539 51.82811373 -192.64648438 53.16357422 C-143.29735322 68.76044907 -84.09143682 48.57196626 -40.421875 26.16015625 C-17.52061647 15.79058686 -17.52061647 15.79058686 0 0 Z " fill="#378D3B" transform="translate(407,326)"/>
<path d="M0 0 C2.73437646 2.26585701 5.40978599 4.57066884 8 7 C4.9807039 11.20758343 1.54653972 14.0147532 -2.75 16.8125 C-3.40685791 17.24336914 -4.06371582 17.67423828 -4.74047852 18.11816406 C-19.7850395 27.7806265 -36.0889716 34.40079372 -53.375 38.8125 C-54.58687988 39.12320435 -54.58687988 39.12320435 -55.82324219 39.44018555 C-73.10906626 43.63438396 -90.76157143 42.84891056 -108 39 C-109.24265625 38.73316406 -110.4853125 38.46632812 -111.765625 38.19140625 C-125.98682324 34.78739603 -141.10401062 28.63042367 -153 20 C-153 19.34 -153 18.68 -153 18 C-135.47944721 15.87145003 -118.16780245 14.72416545 -100.515625 14.84765625 C-99.21409737 14.85600054 -99.21409737 14.85600054 -97.88627625 14.8645134 C-90.75530104 14.91554911 -83.62487212 15.00329368 -76.49438477 15.09979248 C-71.09895421 15.17217369 -65.70385229 15.22885925 -60.3080368 15.26269341 C-57.81474888 15.28472223 -55.32259053 15.33007483 -52.82965088 15.37623596 C-51.31645568 15.38755717 -49.80325112 15.39770951 -48.29003906 15.40649414 C-46.97424866 15.4244252 -45.65845825 15.44235626 -44.30279541 15.46083069 C-40.94095105 15.26447132 -40.94095105 15.26447132 -38.56781006 13.16600037 C-36.47101597 10.26918468 -36.55301659 8.50137001 -37 5 C-38.72226496 1.75150023 -38.72226496 1.75150023 -42 1 C-51.11656111 -0.19718811 -60.2995457 -0.14799393 -69.4765625 -0.1328125 C-70.93761206 -0.13348838 -72.39866151 -0.13446075 -73.85971069 -0.13571167 C-76.90029995 -0.13717438 -79.94085954 -0.13507986 -82.98144531 -0.13037109 C-86.85208296 -0.12466444 -90.72265138 -0.12796786 -94.59328651 -0.13394356 C-97.60296132 -0.13757925 -100.61262006 -0.13639701 -103.62229538 -0.13381577 C-105.04864892 -0.13315533 -106.47500399 -0.1339435 -107.90135574 -0.13629532 C-114.99490735 -0.14543238 -121.98956334 -0.06929093 -129.03826904 0.77638245 C-131.57409792 1.06544138 -134.07477541 1.09893178 -136.625 1.0625 C-137.88183594 1.04896484 -137.88183594 1.04896484 -139.1640625 1.03515625 C-139.76992188 1.02355469 -140.37578125 1.01195312 -141 1 C-137.78294529 -2.57093073 -134.15859047 -4.92608179 -130 -7.25 C-129.30938477 -7.63623535 -128.61876953 -8.0224707 -127.90722656 -8.42041016 C-85.99554103 -31.17750835 -37.8673155 -29.9156641 0 0 Z " fill="#378C3B" transform="translate(468,192)"/>
<path d="M0 0 C17.7627484 -0.22581237 35.35035794 -0.29948158 53 2 C53.94858887 2.11827148 54.89717773 2.23654297 55.87451172 2.35839844 C82.53624266 5.80910163 113.76141608 13.58352664 131.22265625 35.83203125 C137.40946716 45.22389919 141.18720631 53.76762127 141 65 C137.59824793 62.10378521 134.20717444 59.20031193 130.88671875 56.2109375 C113.45779359 40.65746594 93.48714785 28.86020669 71.75 20.375 C70.44615356 19.86018066 70.44615356 19.86018066 69.1159668 19.33496094 C64.26713795 17.52332098 60.25693874 16.46013466 55 17 C52.43661311 18.47993156 52.43661311 18.47993156 51 21 C50.33333333 24 50.33333333 24 51 27 C54.34696421 31.53660136 58.78849263 32.47822809 63.9375 34.0625 C88.25330431 42.08961814 115.57510066 57.83425466 131 79 C131 79.33 131 79.66 131 80 C95.61120556 81.77932486 61.38141535 66.42614266 35.375 43.0625 C34.64023438 42.37285156 33.90546875 41.68320313 33.1484375 40.97265625 C30.97847569 38.93158191 30.97847569 38.93158191 28.42578125 36.96484375 C24.80338225 34.03075889 21.99651933 30.5550938 19 27 C17.83404297 25.64841797 17.83404297 25.64841797 16.64453125 24.26953125 C0 4.73478682 0 4.73478682 0 0 Z " fill="#429E46" transform="translate(134,48)"/>
<path d="M0 0 C17.606392 9.38668616 31.2137827 22.79860569 37.65576172 41.94946289 C39.08037883 47.03656995 39.31446889 51.9257644 39.25 57.1875 C39.23549805 58.44457764 39.23549805 58.44457764 39.22070312 59.72705078 C38.92484293 75.13249102 34.90387799 89.19224401 28 103 C27.34 103 26.68 103 26 103 C25.48953125 101.99324219 24.9790625 100.98648438 24.453125 99.94921875 C16.92923712 85.31689398 8.71748787 70.5666319 -2 58 C-1.01 57.505 -1.01 57.505 0 57 C0.87767996 54.79227376 0.87767996 54.79227376 1.5625 52.1875 C1.81128906 51.31480469 2.06007812 50.44210938 2.31640625 49.54296875 C2.54199219 48.70378906 2.76757812 47.86460937 3 47 C3.17418457 46.37963867 3.34836914 45.75927734 3.52783203 45.12011719 C6.78166752 30.50982381 3.26936015 14.27425995 0 0 Z " fill="#378C3B" transform="translate(128,140)"/>
<path d="M0 0 C0.99 1.485 0.99 1.485 2 3 C-5.12959751 9.0356381 -12.84453099 13.53363362 -21 18 C-22.33333333 16 -23.66666667 14 -25 12 C-34.49223805 8.83592065 -45.58699049 9.8508273 -55.4765625 9.8671875 C-56.93761206 9.86651162 -58.39866151 9.86553925 -59.85971069 9.86428833 C-62.90029995 9.86282562 -65.94085954 9.86492014 -68.98144531 9.86962891 C-72.85208296 9.87533556 -76.72265138 9.87203214 -80.59328651 9.86605644 C-83.60296132 9.86242075 -86.61262006 9.86360299 -89.62229538 9.86618423 C-91.04864892 9.86684467 -92.47500399 9.8660565 -93.90135574 9.86370468 C-100.99490735 9.85456762 -107.98956334 9.93070907 -115.03826904 10.77638245 C-117.57409792 11.06544138 -120.07477541 11.09893178 -122.625 11.0625 C-123.88183594 11.04896484 -123.88183594 11.04896484 -125.1640625 11.03515625 C-125.76992188 11.02355469 -126.37578125 11.01195312 -127 11 C-123.78294529 7.42906927 -120.15859047 5.07391821 -116 2.75 C-115.30938477 2.36376465 -114.61876953 1.9775293 -113.90722656 1.57958984 C-78.11734884 -17.85350504 -35.95102947 -20.97143386 0 0 Z " fill="#419C46" transform="translate(454,182)"/>
<path d="M0 0 C-1.66554437 14.75196444 -10.06575761 28.45726822 -21.375 37.875 C-25.91513948 41.20757216 -30.6865829 43.21759776 -36 45 C-37.32064453 45.53947266 -37.32064453 45.53947266 -38.66796875 46.08984375 C-43.19460699 47.32631117 -47.45548116 47.29078182 -52.125 47.25 C-53.46498047 47.26160156 -53.46498047 47.26160156 -54.83203125 47.2734375 C-55.69441406 47.27085938 -56.55679687 47.26828125 -57.4453125 47.265625 C-58.22406738 47.26336914 -59.00282227 47.26111328 -59.80517578 47.25878906 C-62.24306294 46.97134074 -63.88312452 46.21360296 -66 45 C-65.21761963 44.52578613 -64.43523926 44.05157227 -63.62915039 43.56298828 C-60.73246219 41.80398455 -57.83859515 40.04051671 -54.9465332 38.27392578 C-53.69340648 37.50974095 -52.43917718 36.74736115 -51.18383789 35.98681641 C-49.38135698 34.89436057 -47.58291933 33.79551011 -45.78515625 32.6953125 C-44.70113525 32.03547363 -43.61711426 31.37563477 -42.50024414 30.69580078 C-39.91675098 29.24116472 -39.91675098 29.24116472 -39 27 C-38.74139865 22.94857881 -38.69558446 21.45662331 -41 18 C-45.17461807 16.70017574 -47.51632736 16.38759283 -51.5859375 18.06738281 C-54.46439552 19.65404001 -57.23211868 21.35265092 -60 23.125 C-60.94617188 23.70765625 -61.89234375 24.2903125 -62.8671875 24.890625 C-66.40080829 27.07344338 -69.9073521 29.29574038 -73.3984375 31.54589844 C-74.11257813 32.00254883 -74.82671875 32.45919922 -75.5625 32.9296875 C-76.18253906 33.33171387 -76.80257813 33.73374023 -77.44140625 34.14794922 C-79 35 -79 35 -81 35 C-81.67683181 28.79570838 -80.73205341 25.21293348 -77.015625 20.16796875 C-59.32379962 1.13897052 -24.31822561 -0.22482181 0 0 Z " fill="#429D46" transform="translate(470,48)"/>
<path d="M0 0 C4.83614342 4.32471452 7.96287859 9.35373291 11.3125 14.875 C11.8799292 15.80231934 12.4473584 16.72963867 13.03198242 17.68505859 C16.41770147 23.26329173 19.71184223 28.88304117 22.8125 34.625 C23.14354736 35.23327637 23.47459473 35.84155273 23.81567383 36.46826172 C25.25649038 39.20940435 26 40.85062708 26 44 C12.10053139 44.57243629 -1.1162056 37.57887903 -13 31 C-13.98742187 30.45601562 -14.97484375 29.91203125 -15.9921875 29.3515625 C-24.86730124 24.07794419 -34.11265018 16.56527631 -40 8 C-39.1478894 7.98598145 -39.1478894 7.98598145 -38.27856445 7.97167969 C-24.20034646 7.68137781 -12.70081934 6.54681409 0 0 Z " fill="#378C3B" transform="translate(115,210)"/>
<path d="M0 0 C12.16856691 6.95708087 24.72974498 16.54392689 33 28 C33 28.33 33 28.66 33 29 C5.80529273 30.36733165 -18.60894135 21.15085537 -42 8 C-39.04681059 7.13541633 -36.54137982 6.921596 -33.47265625 7.04296875 C-22.70594439 7.33946513 -14.12453875 6.9452428 -4 3 C-2.67273844 2.64325691 -1.34126846 2.29981295 0 2 C0 1.34 0 0.68 0 0 Z " fill="#368A3B" transform="translate(232,99)"/>
<path d="M0 0 C11.0772063 3.64435969 19.83097495 13.97298006 25 24 C28.64144962 31.31651262 30.13597349 36.84159085 30 45 C26.53822222 42.04617568 23.08553524 39.08415446 19.67578125 36.0703125 C12.45624768 29.72696682 5.17601261 24.0912899 -3 19 C-2.68289062 18.15179688 -2.36578125 17.30359375 -2.0390625 16.4296875 C-0.97128768 12.90522775 -0.59958921 9.79329043 -0.375 6.125 C-0.30023438 4.97257812 -0.22546875 3.82015625 -0.1484375 2.6328125 C-0.09945312 1.76398438 -0.05046875 0.89515625 0 0 Z " fill="#368A3B" transform="translate(245,68)"/>
<path d="M0 0 C1.37147309 0.00374273 2.74294891 0.00658372 4.11442566 0.00857544 C7.67684671 0.01611293 11.23909758 0.03567283 14.80145264 0.0579834 C18.45550232 0.07865839 22.10958023 0.08762284 25.76367188 0.09765625 C32.89850598 0.11893102 40.03322609 0.15294301 47.16796875 0.1953125 C47.16796875 0.8553125 47.16796875 1.5153125 47.16796875 2.1953125 C44.68958193 2.678826 42.21037097 3.15718451 39.73046875 3.6328125 C39.04275391 3.76751953 38.35503906 3.90222656 37.64648438 4.04101562 C15.97538869 8.17364317 -6.18244306 6.7381437 -27.83203125 3.1953125 C-27.83203125 2.8653125 -27.83203125 2.5353125 -27.83203125 2.1953125 C-18.48368845 0.46181974 -9.49531452 -0.07603581 0 0 Z " fill="#419D46" transform="translate(361.83203125,206.8046875)"/>
</svg>
